<mxfile host="www.draw.io" modified="2020-02-20T10:15:16.024Z" agent="Mozilla/5.0 (Windows NT 10.0; Win64; x64) AppleWebKit/537.36 (KHTML, like Gecko) Chrome/75.0.3770.142 Safari/537.36" etag="mLsZ1DMu9t6_18a4UklD" version="12.7.2" type="github">
  <diagram id="POuYcbVOxiq2fnf-8Wsg" name="第 1 页">
    <mxGraphModel dx="881" dy="378" grid="1" gridSize="10" guides="1" tooltips="1" connect="1" arrows="1" fold="1" page="1" pageScale="1" pageWidth="827" pageHeight="1169" math="0" shadow="0">
      <root>
        <mxCell id="0" />
        <mxCell id="1" parent="0" />
        <mxCell id="ii9r5_IIq6GUErk3aqry-11" style="edgeStyle=orthogonalEdgeStyle;rounded=0;orthogonalLoop=1;jettySize=auto;html=1;entryX=0;entryY=0.5;entryDx=0;entryDy=0;" edge="1" parent="1" source="ii9r5_IIq6GUErk3aqry-1" target="ii9r5_IIq6GUErk3aqry-2">
          <mxGeometry relative="1" as="geometry" />
        </mxCell>
        <mxCell id="ii9r5_IIq6GUErk3aqry-12" value="发送请求" style="text;html=1;align=center;verticalAlign=middle;resizable=0;points=[];labelBackgroundColor=#ffffff;" vertex="1" connectable="0" parent="ii9r5_IIq6GUErk3aqry-11">
          <mxGeometry x="-0.2756" y="2" relative="1" as="geometry">
            <mxPoint as="offset" />
          </mxGeometry>
        </mxCell>
        <mxCell id="ii9r5_IIq6GUErk3aqry-14" style="edgeStyle=orthogonalEdgeStyle;rounded=0;orthogonalLoop=1;jettySize=auto;html=1;entryX=0;entryY=0.5;entryDx=0;entryDy=0;" edge="1" parent="1" source="ii9r5_IIq6GUErk3aqry-1" target="ii9r5_IIq6GUErk3aqry-13">
          <mxGeometry relative="1" as="geometry">
            <Array as="points">
              <mxPoint x="90" y="100" />
            </Array>
          </mxGeometry>
        </mxCell>
        <mxCell id="ii9r5_IIq6GUErk3aqry-15" value="创建topic" style="text;html=1;align=center;verticalAlign=middle;resizable=0;points=[];labelBackgroundColor=#ffffff;" vertex="1" connectable="0" parent="ii9r5_IIq6GUErk3aqry-14">
          <mxGeometry x="-0.1273" y="-58" relative="1" as="geometry">
            <mxPoint as="offset" />
          </mxGeometry>
        </mxCell>
        <mxCell id="ii9r5_IIq6GUErk3aqry-1" value="客户端" style="rounded=0;whiteSpace=wrap;html=1;" vertex="1" parent="1">
          <mxGeometry x="30" y="245" width="120" height="60" as="geometry" />
        </mxCell>
        <mxCell id="ii9r5_IIq6GUErk3aqry-28" style="edgeStyle=orthogonalEdgeStyle;rounded=0;orthogonalLoop=1;jettySize=auto;html=1;" edge="1" parent="1" source="ii9r5_IIq6GUErk3aqry-2" target="ii9r5_IIq6GUErk3aqry-27">
          <mxGeometry relative="1" as="geometry">
            <Array as="points">
              <mxPoint x="550" y="275" />
              <mxPoint x="550" y="275" />
            </Array>
          </mxGeometry>
        </mxCell>
        <mxCell id="ii9r5_IIq6GUErk3aqry-30" value="发送数据" style="text;html=1;align=center;verticalAlign=middle;resizable=0;points=[];labelBackgroundColor=#ffffff;" vertex="1" connectable="0" parent="ii9r5_IIq6GUErk3aqry-28">
          <mxGeometry x="0.5004" y="-30" relative="1" as="geometry">
            <mxPoint x="-30" y="-29" as="offset" />
          </mxGeometry>
        </mxCell>
        <mxCell id="ii9r5_IIq6GUErk3aqry-2" value="" style="rounded=0;whiteSpace=wrap;html=1;" vertex="1" parent="1">
          <mxGeometry x="240" y="180" width="190" height="190" as="geometry" />
        </mxCell>
        <mxCell id="ii9r5_IIq6GUErk3aqry-3" value="Broker&lt;br&gt;Partition0 leander" style="text;html=1;strokeColor=none;fillColor=none;align=center;verticalAlign=middle;whiteSpace=wrap;rounded=0;" vertex="1" parent="1">
          <mxGeometry x="256" y="190" width="157.5" height="20" as="geometry" />
        </mxCell>
        <mxCell id="ii9r5_IIq6GUErk3aqry-6" style="edgeStyle=orthogonalEdgeStyle;rounded=0;orthogonalLoop=1;jettySize=auto;html=1;exitX=0.25;exitY=1;exitDx=0;exitDy=0;entryX=0;entryY=0.5;entryDx=0;entryDy=0;" edge="1" parent="1" source="ii9r5_IIq6GUErk3aqry-4" target="ii9r5_IIq6GUErk3aqry-5">
          <mxGeometry relative="1" as="geometry" />
        </mxCell>
        <mxCell id="ii9r5_IIq6GUErk3aqry-7" value="10s" style="text;html=1;align=center;verticalAlign=middle;resizable=0;points=[];labelBackgroundColor=#ffffff;" vertex="1" connectable="0" parent="ii9r5_IIq6GUErk3aqry-6">
          <mxGeometry x="0.0854" y="2" relative="1" as="geometry">
            <mxPoint as="offset" />
          </mxGeometry>
        </mxCell>
        <mxCell id="ii9r5_IIq6GUErk3aqry-4" value="ISR检测线程" style="rounded=0;whiteSpace=wrap;html=1;" vertex="1" parent="1">
          <mxGeometry x="280" y="225" width="110" height="30" as="geometry" />
        </mxCell>
        <mxCell id="ii9r5_IIq6GUErk3aqry-9" style="edgeStyle=orthogonalEdgeStyle;rounded=0;orthogonalLoop=1;jettySize=auto;html=1;entryX=1;entryY=0.5;entryDx=0;entryDy=0;" edge="1" parent="1" source="ii9r5_IIq6GUErk3aqry-5" target="ii9r5_IIq6GUErk3aqry-8">
          <mxGeometry relative="1" as="geometry">
            <Array as="points">
              <mxPoint x="365" y="345" />
            </Array>
          </mxGeometry>
        </mxCell>
        <mxCell id="ii9r5_IIq6GUErk3aqry-10" value="更新" style="text;html=1;align=center;verticalAlign=middle;resizable=0;points=[];labelBackgroundColor=#ffffff;" vertex="1" connectable="0" parent="ii9r5_IIq6GUErk3aqry-9">
          <mxGeometry x="-0.2286" relative="1" as="geometry">
            <mxPoint as="offset" />
          </mxGeometry>
        </mxCell>
        <mxCell id="ii9r5_IIq6GUErk3aqry-5" value="ISR" style="rounded=0;whiteSpace=wrap;html=1;" vertex="1" parent="1">
          <mxGeometry x="340" y="280" width="50" height="30" as="geometry" />
        </mxCell>
        <mxCell id="ii9r5_IIq6GUErk3aqry-8" value="HW" style="rounded=0;whiteSpace=wrap;html=1;" vertex="1" parent="1">
          <mxGeometry x="280" y="330" width="50" height="30" as="geometry" />
        </mxCell>
        <mxCell id="ii9r5_IIq6GUErk3aqry-26" style="edgeStyle=orthogonalEdgeStyle;rounded=0;orthogonalLoop=1;jettySize=auto;html=1;entryX=0.5;entryY=0;entryDx=0;entryDy=0;" edge="1" parent="1" source="ii9r5_IIq6GUErk3aqry-13" target="ii9r5_IIq6GUErk3aqry-2">
          <mxGeometry relative="1" as="geometry" />
        </mxCell>
        <mxCell id="ii9r5_IIq6GUErk3aqry-32" style="edgeStyle=orthogonalEdgeStyle;rounded=0;orthogonalLoop=1;jettySize=auto;html=1;entryX=0.5;entryY=0;entryDx=0;entryDy=0;" edge="1" parent="1" source="ii9r5_IIq6GUErk3aqry-13" target="ii9r5_IIq6GUErk3aqry-27">
          <mxGeometry relative="1" as="geometry" />
        </mxCell>
        <mxCell id="ii9r5_IIq6GUErk3aqry-13" value="zookeeper集群" style="rounded=0;whiteSpace=wrap;html=1;" vertex="1" parent="1">
          <mxGeometry x="275" y="70" width="120" height="60" as="geometry" />
        </mxCell>
        <mxCell id="ii9r5_IIq6GUErk3aqry-17" style="edgeStyle=orthogonalEdgeStyle;rounded=0;orthogonalLoop=1;jettySize=auto;html=1;entryX=0.5;entryY=1;entryDx=0;entryDy=0;" edge="1" parent="1" source="ii9r5_IIq6GUErk3aqry-16" target="ii9r5_IIq6GUErk3aqry-8">
          <mxGeometry relative="1" as="geometry" />
        </mxCell>
        <mxCell id="ii9r5_IIq6GUErk3aqry-18" value="更新" style="text;html=1;align=center;verticalAlign=middle;resizable=0;points=[];labelBackgroundColor=#ffffff;" vertex="1" connectable="0" parent="ii9r5_IIq6GUErk3aqry-17">
          <mxGeometry x="-0.1214" y="-2" relative="1" as="geometry">
            <mxPoint x="-2" y="-15.86" as="offset" />
          </mxGeometry>
        </mxCell>
        <mxCell id="ii9r5_IIq6GUErk3aqry-19" style="edgeStyle=orthogonalEdgeStyle;rounded=0;orthogonalLoop=1;jettySize=auto;html=1;exitX=1;exitY=0.5;exitDx=0;exitDy=0;entryX=0.75;entryY=1;entryDx=0;entryDy=0;" edge="1" parent="1" source="ii9r5_IIq6GUErk3aqry-16" target="ii9r5_IIq6GUErk3aqry-2">
          <mxGeometry relative="1" as="geometry">
            <Array as="points">
              <mxPoint x="383" y="490" />
              <mxPoint x="383" y="415" />
            </Array>
          </mxGeometry>
        </mxCell>
        <mxCell id="ii9r5_IIq6GUErk3aqry-21" value="更新&lt;br&gt;follower LEO、time" style="text;html=1;align=center;verticalAlign=middle;resizable=0;points=[];labelBackgroundColor=#ffffff;" vertex="1" connectable="0" parent="ii9r5_IIq6GUErk3aqry-19">
          <mxGeometry x="0.2324" y="-2" relative="1" as="geometry">
            <mxPoint as="offset" />
          </mxGeometry>
        </mxCell>
        <mxCell id="ii9r5_IIq6GUErk3aqry-22" style="edgeStyle=orthogonalEdgeStyle;rounded=0;orthogonalLoop=1;jettySize=auto;html=1;exitX=1;exitY=0.75;exitDx=0;exitDy=0;entryX=1;entryY=0.5;entryDx=0;entryDy=0;" edge="1" parent="1" source="ii9r5_IIq6GUErk3aqry-16" target="ii9r5_IIq6GUErk3aqry-5">
          <mxGeometry relative="1" as="geometry">
            <Array as="points">
              <mxPoint x="470" y="505" />
              <mxPoint x="470" y="295" />
            </Array>
          </mxGeometry>
        </mxCell>
        <mxCell id="ii9r5_IIq6GUErk3aqry-23" value="更新" style="text;html=1;align=center;verticalAlign=middle;resizable=0;points=[];labelBackgroundColor=#ffffff;" vertex="1" connectable="0" parent="ii9r5_IIq6GUErk3aqry-22">
          <mxGeometry x="-0.0249" y="-2" relative="1" as="geometry">
            <mxPoint as="offset" />
          </mxGeometry>
        </mxCell>
        <mxCell id="ii9r5_IIq6GUErk3aqry-24" style="edgeStyle=orthogonalEdgeStyle;rounded=0;orthogonalLoop=1;jettySize=auto;html=1;entryX=0;entryY=0.75;entryDx=0;entryDy=0;" edge="1" parent="1" source="ii9r5_IIq6GUErk3aqry-16" target="ii9r5_IIq6GUErk3aqry-2">
          <mxGeometry relative="1" as="geometry">
            <Array as="points">
              <mxPoint x="220" y="490" />
              <mxPoint x="220" y="322" />
            </Array>
          </mxGeometry>
        </mxCell>
        <mxCell id="ii9r5_IIq6GUErk3aqry-25" value="读取数据" style="text;html=1;align=center;verticalAlign=middle;resizable=0;points=[];labelBackgroundColor=#ffffff;" vertex="1" connectable="0" parent="ii9r5_IIq6GUErk3aqry-24">
          <mxGeometry x="-0.1339" relative="1" as="geometry">
            <mxPoint as="offset" />
          </mxGeometry>
        </mxCell>
        <mxCell id="ii9r5_IIq6GUErk3aqry-16" value="磁盘文件" style="rounded=0;whiteSpace=wrap;html=1;" vertex="1" parent="1">
          <mxGeometry x="245" y="460" width="120" height="60" as="geometry" />
        </mxCell>
        <mxCell id="ii9r5_IIq6GUErk3aqry-29" style="edgeStyle=orthogonalEdgeStyle;rounded=0;orthogonalLoop=1;jettySize=auto;html=1;exitX=0;exitY=0.25;exitDx=0;exitDy=0;entryX=1;entryY=0.25;entryDx=0;entryDy=0;" edge="1" parent="1" source="ii9r5_IIq6GUErk3aqry-27" target="ii9r5_IIq6GUErk3aqry-2">
          <mxGeometry relative="1" as="geometry">
            <Array as="points">
              <mxPoint x="590" y="228" />
              <mxPoint x="510" y="228" />
            </Array>
          </mxGeometry>
        </mxCell>
        <mxCell id="ii9r5_IIq6GUErk3aqry-31" value="发送fetch请求" style="text;html=1;align=center;verticalAlign=middle;resizable=0;points=[];labelBackgroundColor=#ffffff;" vertex="1" connectable="0" parent="ii9r5_IIq6GUErk3aqry-29">
          <mxGeometry x="0.053" relative="1" as="geometry">
            <mxPoint x="13.48" as="offset" />
          </mxGeometry>
        </mxCell>
        <mxCell id="ii9r5_IIq6GUErk3aqry-34" style="edgeStyle=orthogonalEdgeStyle;rounded=0;orthogonalLoop=1;jettySize=auto;html=1;" edge="1" parent="1" source="ii9r5_IIq6GUErk3aqry-27" target="ii9r5_IIq6GUErk3aqry-33">
          <mxGeometry relative="1" as="geometry" />
        </mxCell>
        <mxCell id="ii9r5_IIq6GUErk3aqry-35" value="写数据" style="text;html=1;align=center;verticalAlign=middle;resizable=0;points=[];labelBackgroundColor=#ffffff;" vertex="1" connectable="0" parent="ii9r5_IIq6GUErk3aqry-34">
          <mxGeometry x="0.131" y="-2" relative="1" as="geometry">
            <mxPoint as="offset" />
          </mxGeometry>
        </mxCell>
        <mxCell id="ii9r5_IIq6GUErk3aqry-27" value="Broker&lt;br&gt;Partition0 follower" style="rounded=0;whiteSpace=wrap;html=1;" vertex="1" parent="1">
          <mxGeometry x="590" y="210" width="120" height="80" as="geometry" />
        </mxCell>
        <mxCell id="ii9r5_IIq6GUErk3aqry-36" style="edgeStyle=orthogonalEdgeStyle;rounded=0;orthogonalLoop=1;jettySize=auto;html=1;entryX=1;entryY=0.5;entryDx=0;entryDy=0;" edge="1" parent="1" source="ii9r5_IIq6GUErk3aqry-33" target="ii9r5_IIq6GUErk3aqry-27">
          <mxGeometry relative="1" as="geometry">
            <Array as="points">
              <mxPoint x="730" y="440" />
              <mxPoint x="730" y="250" />
            </Array>
          </mxGeometry>
        </mxCell>
        <mxCell id="ii9r5_IIq6GUErk3aqry-37" value="更新LEO、HW" style="text;html=1;align=center;verticalAlign=middle;resizable=0;points=[];labelBackgroundColor=#ffffff;" vertex="1" connectable="0" parent="ii9r5_IIq6GUErk3aqry-36">
          <mxGeometry x="-0.1178" y="-2" relative="1" as="geometry">
            <mxPoint as="offset" />
          </mxGeometry>
        </mxCell>
        <mxCell id="ii9r5_IIq6GUErk3aqry-33" value="磁盘文件" style="rounded=0;whiteSpace=wrap;html=1;" vertex="1" parent="1">
          <mxGeometry x="590" y="410" width="120" height="60" as="geometry" />
        </mxCell>
      </root>
    </mxGraphModel>
  </diagram>
</mxfile>
